# xmcd
# Track frame offsets:
# 150
# 19460
# 38072
# 52792
# 66827
# 79147
# 96460
# 113677
# 127720
# 136967
# 157862
# 179470
#
# Disc length: 2596 seconds
# Revision: 0
# Processed by: cddbd v1.4PL0 Copyright (c) Steve Scherf et al.
# Submitted via: VisiTrax 2.9.2.167 - For more info visit www.synapsa.com
#
DISCID=940a220c
DTITLE=Bobbie Gentry - Ode to Billie Joe
DYEAR=1900
DGENRE=
TTITLE0=Ode to Billie Joe
TTITLE1=Fancy
TTITLE2=Okolona river bottom band
TTITLE3=Morning glory
TTITLE4=Louisiana man
TTITLE5=Slow cookin'
TTITLE6=Steal away
TTITLE7=Mississippi delta
TTITLE8=Penduli pendulum
TTITLE9=Sweet country
TTITLE10=Thunder in the afternoon
TTITLE11=He did me wrong, but he did it right
EXTD=
EXTT0=
EXTT1=
EXTT2=
EXTT3=
EXTT4=
EXTT5=
EXTT6=
EXTT7=
EXTT8=
EXTT9=
EXTT10=
EXTT11=
PLAYORDER=
